<svg width="18" height="20" viewBox="0 0 18 20" fill="none" xmlns="http://www.w3.org/2000/svg">
<path d="M11 1.5C11 2.33 10.33 3 9.5 3C8.67 3 8 2.33 8 1.5C8 0.67 8.67 0 9.5 0C10.33 0 11 0.67 11 1.5ZM5.5 3C4.67 3 4 3.67 4 4.5C4 5.33 4.67 6 5.5 6C6.33 6 7 5.33 7 4.5C7 3.67 6.33 3 5.5 3ZM11 10L10.22 7.75H13.18L15.34 6.67C15.71 6.5 15.86 6.04 15.67 5.67C15.6277 5.5811 15.568 5.50158 15.4944 5.43613C15.4209 5.37068 15.335 5.32063 15.2418 5.28894C15.1485 5.25724 15.0499 5.24455 14.9517 5.2516C14.8535 5.25865 14.7577 5.28531 14.67 5.33L13.85 5.74L13.36 4.9C13.07 4.25 12.36 3.88 11.66 4.04L9.19 4.57C8.5 4.72 8 5.35 8 6.07V6.77L5.57 8.39H5.58C5.5 8.46 5.39 8.55 5.33 8.67L4.44 10.44L2.66 11.33C2.29 11.5 2.14 11.97 2.33 12.34C2.42051 12.5174 2.57758 12.6517 2.76687 12.7135C2.95615 12.7754 3.16223 12.7597 3.34 12.67L5.56 11.56L6.6 9.5L8 11C7 14 0 18 0 18C0 18 4 20 9 20C14 20 18 18 18 18C18 18 13 14 11 10ZM13.85 9.09L13.53 9.25H12.33L12.39 9.41C12.91 10.44 13.67 11.5 14.5 12.44L13.97 9.03L13.85 9.09Z" fill="white"/>
</svg>
