<svg width="24" height="24" viewBox="0 0 24 24" fill="none" xmlns="http://www.w3.org/2000/svg">
<mask id="path-1-inside-1" fill="white">
<path d="M20.3438 3.75H18.1875V2.8125C18.1875 2.70937 18.1031 2.625 18 2.625H6C5.89687 2.625 5.8125 2.70937 5.8125 2.8125V3.75H3.65625C3.38275 3.75 3.12044 3.85865 2.92705 4.05205C2.73365 4.24544 2.625 4.50775 2.625 4.78125V8.25C2.625 10.1648 4.03125 11.7563 5.86406 12.0469C6.22734 14.7703 8.41406 16.9148 11.1562 17.2148V19.6805H6.5625C6.14766 19.6805 5.8125 20.0156 5.8125 20.4305V21.1875C5.8125 21.2906 5.89687 21.375 6 21.375H18C18.1031 21.375 18.1875 21.2906 18.1875 21.1875V20.4305C18.1875 20.0156 17.8523 19.6805 17.4375 19.6805H12.8438V17.2148C15.5859 16.9148 17.7727 14.7703 18.1359 12.0469C19.9688 11.7563 21.375 10.1648 21.375 8.25V4.78125C21.375 4.50775 21.2663 4.24544 21.073 4.05205C20.8796 3.85865 20.6173 3.75 20.3438 3.75ZM4.3125 8.25V5.4375H5.8125V10.3031C5.37714 10.1641 4.99723 9.89025 4.72762 9.52122C4.45801 9.15219 4.31264 8.70703 4.3125 8.25ZM16.5 11.25C16.5 12.4008 16.0523 13.4859 15.2367 14.2992C14.4211 15.1148 13.3383 15.5625 12.1875 15.5625H11.8125C10.6617 15.5625 9.57656 15.1148 8.76328 14.2992C7.94766 13.4836 7.5 12.4008 7.5 11.25V4.3125H16.5V11.25ZM19.6875 8.25C19.6875 9.21094 19.057 10.0266 18.1875 10.3031V5.4375H19.6875V8.25Z"/>
</mask>
<path d="M20.3438 3.75H18.1875V2.8125C18.1875 2.70937 18.1031 2.625 18 2.625H6C5.89687 2.625 5.8125 2.70937 5.8125 2.8125V3.75H3.65625C3.38275 3.75 3.12044 3.85865 2.92705 4.05205C2.73365 4.24544 2.625 4.50775 2.625 4.78125V8.25C2.625 10.1648 4.03125 11.7563 5.86406 12.0469C6.22734 14.7703 8.41406 16.9148 11.1562 17.2148V19.6805H6.5625C6.14766 19.6805 5.8125 20.0156 5.8125 20.4305V21.1875C5.8125 21.2906 5.89687 21.375 6 21.375H18C18.1031 21.375 18.1875 21.2906 18.1875 21.1875V20.4305C18.1875 20.0156 17.8523 19.6805 17.4375 19.6805H12.8438V17.2148C15.5859 16.9148 17.7727 14.7703 18.1359 12.0469C19.9688 11.7563 21.375 10.1648 21.375 8.25V4.78125C21.375 4.50775 21.2663 4.24544 21.073 4.05205C20.8796 3.85865 20.6173 3.75 20.3438 3.75ZM4.3125 8.25V5.4375H5.8125V10.3031C5.37714 10.1641 4.99723 9.89025 4.72762 9.52122C4.45801 9.15219 4.31264 8.70703 4.3125 8.25ZM16.5 11.25C16.5 12.4008 16.0523 13.4859 15.2367 14.2992C14.4211 15.1148 13.3383 15.5625 12.1875 15.5625H11.8125C10.6617 15.5625 9.57656 15.1148 8.76328 14.2992C7.94766 13.4836 7.5 12.4008 7.5 11.25V4.3125H16.5V11.25ZM19.6875 8.25C19.6875 9.21094 19.057 10.0266 18.1875 10.3031V5.4375H19.6875V8.25Z" fill="black"/>
<path d="M18.1875 3.75H16.1875V5.75H18.1875V3.75ZM5.8125 3.75V5.75H7.8125V3.75H5.8125ZM5.86406 12.0469L7.8465 11.7824L7.64943 10.305L6.17728 10.0716L5.86406 12.0469ZM11.1562 17.2148H13.1562V15.4217L11.3738 15.2267L11.1562 17.2148ZM11.1562 19.6805V21.6805H13.1562V19.6805H11.1562ZM12.8438 19.6805H10.8438V21.6805H12.8438V19.6805ZM12.8438 17.2148L12.6262 15.2267L10.8438 15.4217V17.2148H12.8438ZM18.1359 12.0469L17.8227 10.0716L16.3506 10.305L16.1535 11.7824L18.1359 12.0469ZM4.3125 5.4375V3.4375H2.3125V5.4375H4.3125ZM5.8125 5.4375H7.8125V3.4375H5.8125V5.4375ZM5.8125 10.3031L5.20396 12.2083L7.8125 13.0415V10.3031H5.8125ZM15.2367 14.2992L13.8245 12.883L13.8225 12.885L15.2367 14.2992ZM8.76328 14.2992L10.1795 12.887L10.1775 12.885L8.76328 14.2992ZM7.5 4.3125V2.3125H5.5V4.3125H7.5ZM16.5 4.3125H18.5V2.3125H16.5V4.3125ZM18.1875 10.3031H16.1875V13.038L18.7937 12.209L18.1875 10.3031ZM18.1875 5.4375V3.4375H16.1875V5.4375H18.1875ZM19.6875 5.4375H21.6875V3.4375H19.6875V5.4375ZM20.3438 1.75H18.1875V5.75H20.3438V1.75ZM20.1875 3.75V2.8125H16.1875V3.75H20.1875ZM20.1875 2.8125C20.1875 1.60481 19.2077 0.625 18 0.625V4.625C16.9986 4.625 16.1875 3.81394 16.1875 2.8125H20.1875ZM18 0.625H6V4.625H18V0.625ZM6 0.625C4.79231 0.625 3.8125 1.60481 3.8125 2.8125H7.8125C7.8125 3.81394 7.00144 4.625 6 4.625V0.625ZM3.8125 2.8125V3.75H7.8125V2.8125H3.8125ZM5.8125 1.75H3.65625V5.75H5.8125V1.75ZM3.65625 1.75C2.85231 1.75 2.0813 2.06936 1.51283 2.63783L4.34126 5.46626C4.15958 5.64794 3.91318 5.75 3.65625 5.75V1.75ZM1.51283 2.63783C0.944363 3.2063 0.625 3.97731 0.625 4.78125H4.625C4.625 5.03818 4.52294 5.28458 4.34126 5.46626L1.51283 2.63783ZM0.625 4.78125V8.25H4.625V4.78125H0.625ZM0.625 8.25C0.625 11.165 2.76289 13.5801 5.55084 14.0222L6.17728 10.0716C5.29961 9.93238 4.625 9.1647 4.625 8.25H0.625ZM3.88162 12.3113C4.36633 15.945 7.27982 18.8027 10.9387 19.203L11.3738 15.2267C9.5483 15.027 8.08836 13.5956 7.8465 11.7824L3.88162 12.3113ZM9.15625 17.2148V19.6805H13.1562V17.2148H9.15625ZM11.1562 17.6805H6.5625V21.6805H11.1562V17.6805ZM6.5625 17.6805C5.04309 17.6805 3.8125 18.9111 3.8125 20.4305H7.8125C7.8125 21.1202 7.25223 21.6805 6.5625 21.6805V17.6805ZM3.8125 20.4305V21.1875H7.8125V20.4305H3.8125ZM3.8125 21.1875C3.8125 22.3952 4.79231 23.375 6 23.375V19.375C7.00144 19.375 7.8125 20.1861 7.8125 21.1875H3.8125ZM6 23.375H18V19.375H6V23.375ZM18 23.375C19.2077 23.375 20.1875 22.3952 20.1875 21.1875H16.1875C16.1875 20.1861 16.9986 19.375 18 19.375V23.375ZM20.1875 21.1875V20.4305H16.1875V21.1875H20.1875ZM20.1875 20.4305C20.1875 18.9111 18.9569 17.6805 17.4375 17.6805V21.6805C16.7478 21.6805 16.1875 21.1202 16.1875 20.4305H20.1875ZM17.4375 17.6805H12.8438V21.6805H17.4375V17.6805ZM14.8438 19.6805V17.2148H10.8438V19.6805H14.8438ZM13.0613 19.203C16.7202 18.8027 19.6337 15.945 20.1184 12.3113L16.1535 11.7824C15.9116 13.5956 14.4517 15.027 12.6262 15.2267L13.0613 19.203ZM18.4492 14.0222C21.2371 13.5801 23.375 11.165 23.375 8.25H19.375C19.375 9.1647 18.7004 9.93238 17.8227 10.0716L18.4492 14.0222ZM23.375 8.25V4.78125H19.375V8.25H23.375ZM23.375 4.78125C23.375 3.97731 23.0556 3.2063 22.4872 2.63783L19.6587 5.46626C19.4771 5.28459 19.375 5.03818 19.375 4.78125H23.375ZM22.4872 2.63783C21.9187 2.06936 21.1477 1.75 20.3438 1.75V5.75C20.0868 5.75 19.8404 5.64793 19.6587 5.46626L22.4872 2.63783ZM6.3125 8.25V5.4375H2.3125V8.25H6.3125ZM4.3125 7.4375H5.8125V3.4375H4.3125V7.4375ZM3.8125 5.4375V10.3031H7.8125V5.4375H3.8125ZM6.42104 8.39795C6.38954 8.38789 6.36205 8.36808 6.34254 8.34137L3.1127 10.7011C3.63242 11.4124 4.36474 11.9402 5.20396 12.2083L6.42104 8.39795ZM6.34254 8.34137C6.32303 8.31467 6.31251 8.28246 6.3125 8.24938L2.3125 8.25062C2.31277 9.1316 2.59299 9.98971 3.1127 10.7011L6.34254 8.34137ZM14.5 11.25C14.5 11.8724 14.2617 12.4471 13.8245 12.883L16.6489 15.7155C17.843 14.5248 18.5 12.9292 18.5 11.25H14.5ZM13.8225 12.885C13.3822 13.3253 12.8082 13.5625 12.1875 13.5625V17.5625C13.8684 17.5625 15.46 16.9044 16.6509 15.7134L13.8225 12.885ZM12.1875 13.5625H11.8125V17.5625H12.1875V13.5625ZM11.8125 13.5625C11.1901 13.5625 10.6154 13.3242 10.1795 12.887L7.34703 15.7114C8.53768 16.9055 10.1333 17.5625 11.8125 17.5625V13.5625ZM10.1775 12.885C9.7372 12.4447 9.5 11.8707 9.5 11.25H5.5C5.5 12.9309 6.15811 14.5225 7.34907 15.7134L10.1775 12.885ZM9.5 11.25V4.3125H5.5V11.25H9.5ZM7.5 6.3125H16.5V2.3125H7.5V6.3125ZM14.5 4.3125V11.25H18.5V4.3125H14.5ZM17.6875 8.25C17.6875 8.28603 17.6772 8.31482 17.6579 8.34077C17.6363 8.3699 17.6078 8.38879 17.5813 8.39721L18.7937 12.209C20.47 11.6759 21.6875 10.1061 21.6875 8.25H17.6875ZM20.1875 10.3031V5.4375H16.1875V10.3031H20.1875ZM18.1875 7.4375H19.6875V3.4375H18.1875V7.4375ZM17.6875 5.4375V8.25H21.6875V5.4375H17.6875Z" fill="white" mask="url(#path-1-inside-1)"/>
</svg>
